<svg width="12" height="13" viewBox="0 0 12 13" fill="none" xmlns="http://www.w3.org/2000/svg">
<path d="M10.7625 0.0570058C10.6248 0.118529 10.5047 0.250365 10.452 0.39685L10.4139 0.499389H8.32502C6.06331 0.499389 6.00178 0.502318 5.61506 0.660521C5.52131 0.698607 5.07307 0.930053 4.61897 1.17908L3.78987 1.62732L2.39827 1.64197C0.851391 1.65955 0.904126 1.65369 0.67268 1.86462C0.511548 2.00818 0.432446 2.19568 0.414868 2.46521C0.385571 2.86072 0.505688 3.15076 0.76936 3.32654C0.880688 3.39978 0.898266 3.42615 0.883618 3.48767C0.874829 3.52869 0.742993 3.96521 0.590649 4.46326C0.271313 5.50623 0.0720945 6.26794 0.0252195 6.62244C0.00471167 6.79236 -0.00407739 7.72693 0.00178198 9.61072L0.010571 12.35L0.0750242 12.4672C0.148266 12.6049 0.262524 12.7162 0.406079 12.7924C0.505688 12.8451 0.684399 12.848 5.07014 12.8568L9.63166 12.8627L9.7137 12.7924L9.79573 12.722L9.80452 9.72205L9.81038 6.72205L9.3387 5.13122C9.08088 4.25525 8.87288 3.53747 8.87873 3.53455C8.88459 3.53162 8.94612 3.51111 9.01936 3.4906C9.33284 3.39978 9.61702 3.15076 9.76936 2.83142C9.82502 2.71716 9.86897 2.60876 9.86897 2.58826C9.86897 2.55896 9.93635 2.55017 10.1297 2.55017H10.3905L10.411 2.65857C10.4432 2.84021 10.5604 3.01013 10.7127 3.09802C10.8416 3.17419 10.8709 3.18005 11.2078 3.18005C11.5565 3.18005 11.5653 3.17712 11.6883 3.09216C11.7645 3.03943 11.8436 2.94568 11.8875 2.85779L11.9637 2.71423V1.58337C11.9637 0.48474 11.9608 0.452514 11.8992 0.338256C11.8231 0.197631 11.7 0.0745839 11.5887 0.0335683C11.4451 -0.0220958 10.8973 -0.00451762 10.7625 0.0570058ZM11.4627 0.534545C11.5037 0.590209 11.5096 0.742553 11.5096 1.59802C11.5096 2.79626 11.5301 2.72595 11.1873 2.72595C10.8446 2.72595 10.8651 2.79626 10.8651 1.60681C10.8651 0.921264 10.8768 0.596068 10.9002 0.543334C10.9324 0.473021 10.9442 0.470092 11.1756 0.470092C11.3924 0.470092 11.4217 0.475951 11.4627 0.534545ZM10.3963 1.52478V2.08142H9.97444C9.55256 2.08142 9.54963 2.08142 9.49104 2.15759C9.45588 2.20154 9.42952 2.27185 9.42952 2.3158C9.42952 2.49451 9.3387 2.70251 9.19807 2.84314C9.02229 3.01599 8.8553 3.07751 8.53303 3.07751H8.2928L8.02034 3.27673C7.86799 3.38806 7.52815 3.64294 7.26741 3.84802C6.76936 4.23181 6.63752 4.29919 6.46174 4.26404C6.16291 4.19958 5.99299 3.93005 6.06623 3.63415C6.09553 3.51697 6.17756 3.42322 6.85725 2.73767C7.72444 1.86169 7.70393 1.89685 7.48713 1.6654C7.4842 1.66247 6.86897 1.65076 6.1219 1.64197L4.76545 1.62732L5.19612 1.39587C5.43342 1.26697 5.75569 1.12048 5.91096 1.06482L6.19221 0.968139H8.29573H10.3963V1.52478ZM6.7928 2.13122C6.7928 2.14294 6.6053 2.34216 6.37678 2.57068L5.95784 2.98962H3.52327C1.12678 2.98962 1.08577 2.98962 1.01252 2.93103C0.912915 2.85193 0.86604 2.69665 0.880688 2.48865C0.892407 2.30994 0.965649 2.19275 1.09456 2.14001C1.1678 2.10779 6.7928 2.10193 6.7928 2.13122ZM5.60334 3.52283C5.59163 3.56091 5.58284 3.67517 5.58284 3.78064C5.58577 4.39294 6.17756 4.85583 6.76643 4.70642C6.97444 4.65369 7.0887 4.58044 7.5926 4.19372C7.7801 4.04724 7.93538 3.93298 7.93538 3.93884C7.93538 3.9447 7.77717 4.5365 7.58381 5.25427L7.23225 6.55798V9.47595V12.3939H3.93342H0.634594L0.549634 12.306L0.461743 12.2181L0.473462 9.48767C0.482251 7.64783 0.496899 6.67224 0.520337 6.50525C0.540844 6.35583 0.719555 5.69958 0.962719 4.87341C1.18831 4.11169 1.37288 3.48181 1.37288 3.47302C1.37288 3.46423 2.33088 3.45837 3.49983 3.45837H5.62385L5.60334 3.52283ZM8.91389 5.3363L9.34163 6.78943V9.42322V12.057L9.04866 11.764L8.75569 11.4711V9.21228C8.75569 7.0033 8.75569 6.95056 8.69709 6.87732C8.66487 6.83923 8.60627 6.79529 8.56526 6.7865C8.4803 6.76599 8.33381 6.83044 8.30452 6.90076C8.29573 6.92712 8.28694 7.96716 8.28694 9.21228V11.4711L7.99397 11.764L7.701 12.057V9.34705L7.69807 6.63708L8.07307 5.23962C8.27815 4.47205 8.45686 3.85095 8.46565 3.86267C8.47737 3.87439 8.67659 4.5365 8.91389 5.3363ZM8.53303 12.3881C8.28108 12.391 8.06721 12.3881 8.05842 12.3793C8.04963 12.3705 8.14631 12.2592 8.27229 12.1302L8.50666 11.8959L8.74983 12.1361L8.99006 12.3793L8.53303 12.3881Z" fill="#FBFDFE"/>
</svg>
