<?xml version="1.0" standalone="no"?>
<!DOCTYPE svg PUBLIC "-//W3C//DTD SVG 20010904//EN"
 "http://www.w3.org/TR/2001/REC-SVG-20010904/DTD/svg10.dtd">
<svg version="1.0" xmlns="http://www.w3.org/2000/svg"
 width="512.000000pt" height="512.000000pt" viewBox="0 0 512.000000 512.000000"
 preserveAspectRatio="xMidYMid meet">

<g transform="translate(0.000000,512.000000) scale(0.100000,-0.100000)"
fill="#0E0E2C" stroke="none">
<path d="M475 5102 c-99 -34 -174 -117 -195 -215 -8 -37 -10 -628 -8 -2087 l3
-2035 21 -46 c28 -60 93 -125 153 -153 44 -20 63 -21 373 -24 l326 -3 4 -157
c3 -134 6 -164 25 -203 27 -60 92 -125 152 -153 l46 -21 1625 0 1625 0 46 21
c60 28 125 93 153 153 l21 46 0 2065 0 2065 -21 46 c-28 60 -93 125 -153 153
-44 20 -63 21 -373 24 l-326 3 -4 157 c-3 134 -6 164 -25 203 -27 60 -92 125
-152 153 l-46 21 -1610 2 c-1507 2 -1613 1 -1660 -15z m3262 -215 l28 -27 5
-840 5 -840 26 -25 c14 -14 41 -28 61 -31 30 -5 41 -1 69 24 l34 30 3 602 2
601 310 -3 310 -3 27 -28 28 -27 0 -2030 0 -2030 -28 -27 -27 -28 -1590 0
-1590 0 -27 28 c-28 27 -28 30 -31 167 l-4 140 915 0 914 0 39 29 c67 50 732
725 743 754 16 40 15 1011 0 1040 -18 35 -51 57 -89 57 -38 0 -71 -22 -89 -57
-8 -15 -11 -157 -11 -462 l0 -441 -256 0 c-172 0 -270 -4 -298 -12 -55 -16
-138 -99 -154 -154 -8 -28 -12 -126 -12 -298 l0 -256 -1260 2 -1260 3 -27 28
-28 27 0 2029 c0 2015 0 2029 20 2051 11 12 29 26 40 31 11 4 730 7 1597 6
l1578 -2 27 -28z m-297 -3812 l-185 -185 -3 171 c-2 118 1 176 9 185 9 11 50
14 188 14 l176 0 -185 -185z"/>
<path d="M925 4351 c-62 -26 -79 -112 -31 -159 l26 -27 1200 0 1200 0 26 27
c37 37 37 99 0 136 l-26 27 -1188 2 c-653 1 -1196 -2 -1207 -6z"/>
<path d="M925 3831 c-62 -26 -79 -112 -31 -159 l26 -27 1200 0 1200 0 26 27
c37 37 37 99 0 136 l-26 27 -1188 2 c-653 1 -1196 -2 -1207 -6z"/>
<path d="M925 3311 c-62 -26 -79 -112 -31 -159 l26 -27 1200 0 1200 0 26 27
c37 37 37 99 0 136 l-26 27 -1188 2 c-653 1 -1196 -2 -1207 -6z"/>
<path d="M3807 2836 c-48 -45 -46 -111 6 -150 70 -52 174 15 153 100 -11 41
-53 74 -96 74 -25 0 -45 -8 -63 -24z"/>
<path d="M925 2791 c-62 -26 -79 -112 -31 -159 l26 -27 560 -3 559 -2 33 29
c27 24 33 36 33 71 0 35 -6 47 -33 71 l-32 29 -548 -1 c-301 0 -556 -4 -567
-8z"/>
<path d="M2428 2783 c-64 -41 -63 -128 4 -167 63 -38 143 10 143 85 0 73 -86
121 -147 82z"/>
<path d="M1087 2270 c-105 -27 -197 -104 -244 -205 -23 -51 -28 -73 -27 -145
0 -72 4 -95 28 -146 35 -77 103 -145 181 -181 51 -23 73 -28 145 -28 72 0 94
5 145 28 78 36 146 104 181 181 24 52 28 74 28 146 0 72 -4 94 -28 146 -55
121 -172 201 -303 209 -37 2 -85 0 -106 -5z m176 -223 c98 -74 82 -219 -29
-272 -107 -50 -235 43 -221 161 13 121 155 184 250 111z"/>
<path d="M1764 2010 c-32 -13 -64 -59 -64 -91 0 -18 11 -41 29 -61 l29 -33
381 0 381 0 27 28 c38 38 38 96 0 134 l-27 28 -368 2 c-202 1 -377 -2 -388 -7z"/>
</g>
</svg>
