<svg width="20" height="20" viewBox="0 0 20 20" fill="none" xmlns="http://www.w3.org/2000/svg">
<path d="M7.54308 0.0429688C7.2423 0.101562 6.83214 0.324219 6.60558 0.550781C6.22667 0.929688 6.05871 1.41406 6.0548 2.11719V2.42188H4.87511C3.54308 2.42188 3.25011 2.45312 2.89855 2.61719C2.58214 2.76562 2.20324 3.14062 2.05871 3.44922C1.73058 4.14453 1.87121 4.94922 2.41027 5.48438C2.59777 5.67188 3.03918 5.9375 3.16027 5.9375C3.19152 5.9375 3.20324 7.58594 3.21105 11.9609L3.22277 17.9883L3.32824 18.3008C3.47667 18.7344 3.68761 19.0664 3.98449 19.3516C4.29308 19.6406 4.6173 19.8203 5.02355 19.9219C5.31652 19.9961 5.47277 20 10.0001 20C14.5275 20 14.6837 19.9961 14.9767 19.9219C15.9259 19.6797 16.6095 18.8906 16.7579 17.8633C16.7814 17.6992 16.797 15.3672 16.797 11.7695V5.94531L16.9454 5.89453C17.504 5.71484 17.9884 5.11719 18.09 4.49219C18.1954 3.83203 17.8673 3.09375 17.3009 2.73047C16.8751 2.46094 16.8087 2.44922 15.3087 2.42969L13.9571 2.41406L13.9337 1.95703C13.9064 1.45312 13.8243 1.16016 13.6329 0.855469C13.3712 0.449219 12.8985 0.128906 12.4259 0.0390625C12.1681 -0.0078125 7.79308 -0.0078125 7.54308 0.0429688ZM12.4806 1.02344C12.8321 1.21484 12.9728 1.48438 13.0001 2.01953L13.0196 2.42188H10.0001H6.98449L6.99621 2C7.01183 1.62891 7.02355 1.5625 7.12121 1.39844C7.1798 1.29688 7.28136 1.17578 7.34777 1.12891C7.6173 0.9375 7.60558 0.9375 10.0587 0.949219C12.1212 0.957031 12.3751 0.964844 12.4806 1.02344ZM16.6993 3.46484C16.8985 3.57031 17.0118 3.69141 17.0939 3.88672C17.2423 4.24609 17.1173 4.67969 16.8009 4.90234L16.6329 5.01953L10.086 5.03125C5.51183 5.03906 3.4923 5.03125 3.39074 5C3.00011 4.88672 2.75011 4.4375 2.85168 4.02734C2.92589 3.71875 3.17199 3.47656 3.49621 3.39453C3.56261 3.37891 6.52355 3.37109 10.0782 3.37109L16.5431 3.37891L16.6993 3.46484ZM15.8517 11.7383C15.8595 15.6562 15.8478 17.5664 15.8204 17.7539C15.7384 18.293 15.4571 18.6914 15.0079 18.9141L14.7462 19.043L10.1017 19.0547C5.06261 19.0664 5.19542 19.0703 4.85558 18.8555C4.53527 18.6523 4.26964 18.2578 4.18371 17.8594C4.15246 17.7109 4.14074 15.9883 4.14074 11.8125V5.97656L9.9923 5.98438L15.84 5.99609L15.8517 11.7383Z" fill="#EF5DA8"/>
<path d="M6.92188 7.37886C6.85938 7.44527 6.79688 7.55074 6.78126 7.62105C6.76954 7.68745 6.75782 9.73824 6.75782 12.1757C6.75782 16.8984 6.75391 16.7539 6.94141 16.9257C7.06251 17.0312 7.26954 17.0507 7.4336 16.9726C7.71094 16.8398 7.69532 17.1562 7.69532 12.1289C7.69532 7.22652 7.70704 7.47652 7.48438 7.32808C7.42969 7.29292 7.3086 7.26558 7.21094 7.26558C7.07032 7.26558 7.01563 7.28902 6.92188 7.37886Z" fill="#EF5DA8"/>
<path d="M9.71891 7.35542C9.66422 7.4023 9.59782 7.48042 9.57438 7.5273C9.54313 7.58589 9.53141 8.93745 9.53141 12.1289C9.53141 17.1562 9.51579 16.8398 9.79313 16.9726C9.95719 17.0507 10.1642 17.0312 10.2853 16.9257C10.4728 16.7539 10.4689 16.8984 10.4689 12.1757C10.4689 9.73824 10.4572 7.68745 10.4455 7.62105C10.4298 7.55074 10.3673 7.44527 10.3048 7.37886C10.1564 7.23042 9.87907 7.2187 9.71891 7.35542Z" fill="#EF5DA8"/>
<path d="M12.4375 7.39844L12.3047 7.53125V12.1055C12.3047 16.0391 12.3125 16.6992 12.3633 16.793C12.4219 16.9141 12.6328 17.0312 12.7852 17.0312C12.9297 17.0312 13.1367 16.8711 13.1914 16.7188C13.2539 16.5391 13.2617 7.82812 13.2031 7.60938C13.1445 7.39844 12.9648 7.26562 12.7461 7.26562C12.5977 7.26562 12.5508 7.28516 12.4375 7.39844Z" fill="#EF5DA8"/>
</svg>
