<svg width="15" height="14" viewBox="0 0 15 14" fill="none" xmlns="http://www.w3.org/2000/svg">
<path d="M3.73256 0.0439548C2.08778 0.304891 0.747924 1.42779 0.231917 2.97582C-0.421889 4.93137 0.311077 7.13319 2.37511 9.42591C3.53319 10.7101 4.94928 11.9004 6.81101 13.1523L7.5 13.6155L8.18899 13.1523C10.0507 11.9004 11.4668 10.7101 12.6249 9.42591C14.6889 7.13319 15.4219 4.93137 14.7681 2.97582C14.1788 1.21377 12.5047 0.00290871 10.6518 -2.28882e-05C9.5523 -2.28882e-05 8.55254 0.375256 7.73455 1.09649C7.61434 1.20204 7.5088 1.29 7.5 1.29C7.4912 1.29 7.38566 1.20204 7.26545 1.09649C6.60285 0.510121 5.78193 0.137774 4.91996 0.0322275C4.59746 -0.00881863 4.02868 -0.00295448 3.73256 0.0439548Z" fill="#FCB938"/>
</svg>
