<svg width="151" height="36" viewBox="0 0 151 36" fill="none" xmlns="http://www.w3.org/2000/svg">
<path d="M45.1969 12.5416C45.9116 12.5416 46.5302 12.675 47.0529 12.9416C47.5862 13.1976 48.0022 13.5656 48.3009 14.0456C48.5996 14.5256 48.7489 15.0963 48.7489 15.7576C48.7489 16.419 48.5996 16.9896 48.3009 17.4696C48.0022 17.9496 47.5862 18.323 47.0529 18.5896C46.5302 18.8456 45.9116 18.9736 45.1969 18.9736H42.7489V23.1016H41.4689V12.5416H45.1969ZM45.0049 17.7736C45.8369 17.7736 46.4449 17.603 46.8289 17.2616C47.2129 16.9096 47.4049 16.4083 47.4049 15.7576C47.4049 15.0963 47.2129 14.595 46.8289 14.2536C46.4449 13.9123 45.8369 13.7416 45.0049 13.7416H42.7489V17.7736H45.0049ZM56.9527 21.9016H63.0007V23.1016H55.6727V12.5416H56.9527V21.9016ZM77.3862 23.1016H76.0262L74.9062 20.1736H70.1222L69.0022 23.1016H67.6582L71.7702 12.5416H73.2902L77.3862 23.1016ZM70.5862 18.9736H74.4422L72.5062 13.7736L70.5862 18.9736ZM90.6917 12.5416V13.7416H87.0117V23.1016H85.7317V13.7416H82.0517V12.5416H90.6917ZM97.2995 23.1016V12.5416H104.708V13.7416H98.5795V17.1496H103.348V18.3496H98.5795V21.9016H104.948V23.1016H97.2995ZM119.708 13.7416H113.596V17.1496H118.364V18.3496H113.596V23.1016H112.316V12.5416H119.708V13.7416ZM134.6 12.5416V19.1656C134.6 20.5203 134.242 21.5443 133.528 22.2376C132.813 22.9203 131.789 23.2616 130.456 23.2616C129.133 23.2616 128.109 22.9203 127.384 22.2376C126.669 21.5443 126.312 20.5203 126.312 19.1656V12.5416H127.592V18.8456C127.592 19.9443 127.821 20.755 128.28 21.2776C128.749 21.8003 129.474 22.0616 130.456 22.0616C131.437 22.0616 132.157 21.8003 132.616 21.2776C133.085 20.755 133.32 19.9443 133.32 18.8456V12.5416H134.6ZM143.941 21.9016H149.989V23.1016H142.661V12.5416H143.941V21.9016Z" fill="#0E0E2C"/>
<path fill-rule="evenodd" clip-rule="evenodd" d="M15.3207 12.5916C12.3956 12.5916 10.0243 14.9629 10.0243 17.8881C10.0243 20.8132 12.3956 23.1845 15.3207 23.1845C18.2459 23.1845 20.6172 20.8132 20.6172 17.8881C20.6172 14.9629 18.2459 12.5916 15.3207 12.5916ZM8.70013 17.8881C8.70013 14.2316 11.6643 11.2675 15.3207 11.2675C18.9772 11.2675 21.9413 14.2316 21.9413 17.8881C21.9413 21.5445 18.9772 24.5087 15.3207 24.5087C11.6643 24.5087 8.70013 21.5445 8.70013 17.8881Z" fill="#5D5FEF"/>
<path fill-rule="evenodd" clip-rule="evenodd" d="M17.7666 0.00600077C18.0854 0.00919129 18.4123 0.0124626 18.7414 0.0124636C19.107 0.0124647 19.4034 0.30888 19.4034 0.674525C19.4034 1.04017 19.107 1.33658 18.7414 1.33658C18.3791 1.33658 18.039 1.33309 17.7165 1.32979C17.2026 1.32451 16.7334 1.3197 16.2898 1.33019C15.574 1.34711 15.02 1.40413 14.5953 1.53777C14.1901 1.66529 13.934 1.8521 13.7625 2.12521C13.6591 2.28977 13.5711 2.51028 13.5141 2.81051C15.5466 2.53739 17.4118 2.62741 18.8107 2.77465C19.1743 2.81293 19.438 3.13874 19.3998 3.50238C19.3615 3.86601 19.0357 4.12977 18.672 4.09149C17.2772 3.94467 15.444 3.86336 13.4765 4.15291C13.5357 4.5797 13.6708 4.84017 13.8201 5.00766C14.024 5.23632 14.3429 5.39155 14.8347 5.47213C15.3314 5.55352 15.9282 5.54687 16.6134 5.51253C16.7923 5.50356 16.9783 5.4926 17.1686 5.48139C17.6802 5.45125 18.2227 5.41928 18.7414 5.41928C19.107 5.41928 19.4034 5.7157 19.4034 6.08134C19.4034 6.44699 19.107 6.7434 18.7414 6.7434C18.2645 6.7434 17.7824 6.77181 17.285 6.80112C17.0859 6.81285 16.8844 6.82473 16.6797 6.83499C15.9891 6.8696 15.2687 6.88503 14.6206 6.77883C13.9676 6.67183 13.3141 6.42982 12.8318 5.88884C12.4819 5.49644 12.2672 4.99774 12.1745 4.39815C11.662 4.51678 11.1452 4.6638 10.6289 4.84426C7.66861 5.87906 4.69498 8.02367 2.67893 12.3211C0.375765 17.2304 1.34726 21.3309 3.09105 24.3368C4.85679 27.3805 7.4046 29.276 8.12892 29.6623C8.45155 29.8344 8.5736 30.2354 8.40154 30.5581C8.22947 30.8807 7.82843 31.0027 7.50581 30.8307C6.57498 30.3342 3.84136 28.2689 1.94571 25.0012C0.0281231 21.6958 -1.04172 17.1343 1.48017 11.7587C3.65716 7.11825 6.91791 4.73879 10.192 3.59431C10.8473 3.36523 11.5018 3.18606 12.1466 3.04782C12.2042 2.41049 12.3606 1.86775 12.6411 1.42104C13.0179 0.821065 13.5687 0.472709 14.1979 0.274709C14.8077 0.0828339 15.5157 0.0239969 16.2585 0.00643722C16.72 -0.00447287 17.232 0.000650271 17.7666 0.00600077Z" fill="#EF5DA8"/>
<path fill-rule="evenodd" clip-rule="evenodd" d="M19.7012 32.316C19.5748 33.0953 19.0994 33.7573 18.465 34.228C17.7209 34.7801 16.7241 35.1017 15.6517 35.1017C14.5794 35.1017 13.5826 34.7801 12.8385 34.228C12.0944 33.6759 11.569 32.8607 11.569 31.9017C11.569 30.9427 12.0944 30.1275 12.8385 29.5754C13.5826 29.0234 14.5794 28.7017 15.6517 28.7017C16.7241 28.7017 17.7209 29.0234 18.465 29.5754C18.954 29.9382 19.3485 30.4147 19.5615 30.9709C25.8327 28.923 28.1356 24.4756 28.9173 21.2954C30.0309 16.7649 28.6475 13.0499 26.7753 10.3671C25.8374 9.02314 24.7805 7.94513 23.8652 7.16756C22.9338 6.37628 22.1933 5.93316 21.9014 5.81807C21.5612 5.68396 21.3942 5.29948 21.5283 4.95932C21.6624 4.61916 22.0469 4.45212 22.387 4.58624C22.8794 4.78034 23.7506 5.33274 24.7225 6.15845C25.7106 6.99787 26.8486 8.15831 27.8612 9.60936C29.8901 12.5167 31.4305 16.6182 30.2032 21.6115C29.3302 25.1629 26.7164 30.131 19.7107 32.3132C19.7075 32.3141 19.7043 32.3151 19.7012 32.316ZM12.8932 31.9017C12.8932 31.4591 13.1335 31.0053 13.6275 30.6388C14.1214 30.2724 14.8349 30.0259 15.6517 30.0259C16.4686 30.0259 17.1821 30.2724 17.676 30.6388C18.17 31.0053 18.4103 31.4591 18.4103 31.9017C18.4103 32.3443 18.17 32.7981 17.676 33.1646C17.1821 33.531 16.4686 33.7775 15.6517 33.7775C14.8349 33.7775 14.1214 33.531 13.6275 33.1646C13.1335 32.7981 12.8932 32.3443 12.8932 31.9017Z" fill="#FCB938"/>
</svg>
