<svg width="15" height="14" viewBox="0 0 15 14" fill="none" xmlns="http://www.w3.org/2000/svg">
<g id="Group">
<path id="Vector" d="M3.92731 0.00785183C3.1705 0.104653 2.5545 0.318788 2.00009 0.682524C1.13475 1.2428 0.515815 2.04947 0.207812 3.01161C-0.346592 4.74522 0.201946 6.53164 1.92969 8.61432C2.26116 9.01619 3.3641 10.1279 3.83931 10.5386C4.66945 11.2631 5.58172 11.9554 6.52333 12.5832C7.37987 13.1522 7.47374 13.1933 7.72601 13.076C7.91667 12.988 9.05775 12.2165 9.64149 11.7765C10.7004 10.9815 11.4543 10.3274 12.2727 9.4914C13.8333 7.89858 14.6781 6.49937 14.945 5.07963C15.0183 4.68656 15.0183 3.92975 14.945 3.55428C14.5959 1.77667 13.2965 0.456656 11.513 0.0723857C11.117 -0.0126817 10.2956 -0.0185484 9.89669 0.0606523C9.09002 0.219054 8.38601 0.568123 7.76414 1.11666L7.506 1.34253L7.23614 1.10493C7.08653 0.97586 6.8724 0.808658 6.76093 0.732391C6.29159 0.418522 5.66092 0.160386 5.10945 0.0635856C4.85425 0.0166519 4.12678 -0.015615 3.92731 0.00785183ZM4.76332 0.961193C5.67852 1.08733 6.42653 1.51853 7.04253 2.26947C7.22734 2.49534 7.34174 2.57161 7.506 2.57161C7.67027 2.57161 7.78761 2.49534 7.96361 2.27534C8.33028 1.8148 8.71161 1.5068 9.21322 1.26626C10.9087 0.453722 12.9239 1.16946 13.7394 2.87081C14.5021 4.46362 13.9682 6.2207 12.085 8.33272C11.0906 9.4474 9.40095 10.8613 7.76414 11.9437L7.506 12.1138L7.08947 11.8322C4.36731 10.0077 2.2729 7.92792 1.43396 6.22364C0.820884 4.97696 0.776884 3.88575 1.30195 2.82094C1.49849 2.422 1.67742 2.18147 2.03236 1.84707C2.76277 1.16066 3.79237 0.826259 4.76332 0.961193Z" fill="#FBFDFE"/>
</g>
</svg>
