<svg width="21" height="25" viewBox="0 0 21 25" fill="none" xmlns="http://www.w3.org/2000/svg">
<path fill-rule="evenodd" clip-rule="evenodd" d="M10.6802 8.89404C8.7097 8.89404 7.11231 10.4914 7.11231 12.4619C7.11231 14.4324 8.7097 16.0298 10.6802 16.0298C12.6507 16.0298 14.2481 14.4324 14.2481 12.4619C14.2481 10.4914 12.6507 8.89404 10.6802 8.89404ZM6.22034 12.4619C6.22034 9.99882 8.21708 8.00208 10.6802 8.00208C13.1433 8.00208 15.14 9.99882 15.14 12.4619C15.14 14.925 13.1433 16.9218 10.6802 16.9218C8.21708 16.9218 6.22034 14.925 6.22034 12.4619Z" fill="#5D5FEF"/>
<path fill-rule="evenodd" clip-rule="evenodd" d="M12.3278 0.41603C12.5425 0.418179 12.7627 0.420383 12.9844 0.420383C13.2307 0.420384 13.4304 0.620058 13.4304 0.866369C13.4304 1.11268 13.2307 1.31235 12.9844 1.31235C12.7403 1.31235 12.5113 1.31 12.294 1.30777C11.9479 1.30422 11.6317 1.30098 11.333 1.30804C10.8508 1.31944 10.4776 1.35786 10.1915 1.44788C9.91852 1.53378 9.74599 1.65962 9.63046 1.8436C9.56085 1.95445 9.50154 2.10299 9.46315 2.30524C10.8323 2.12125 12.0888 2.18189 13.0311 2.28108C13.276 2.30686 13.4537 2.52634 13.4279 2.7713C13.4021 3.01626 13.1827 3.19393 12.9377 3.16815C11.9981 3.06924 10.7632 3.01447 9.43781 3.20952C9.47766 3.49701 9.56869 3.67248 9.66928 3.7853C9.80661 3.93934 10.0214 4.0439 10.3527 4.09819C10.6873 4.15301 11.0893 4.14854 11.551 4.1254C11.6715 4.11936 11.7967 4.11198 11.9249 4.10442C12.2695 4.08412 12.635 4.06259 12.9844 4.06259C13.2307 4.06259 13.4304 4.26226 13.4304 4.50857C13.4304 4.75488 13.2307 4.95456 12.9844 4.95456C12.6632 4.95456 12.3384 4.97369 12.0033 4.99344C11.8692 5.00134 11.7335 5.00934 11.5956 5.01625C11.1304 5.03957 10.6451 5.04996 10.2085 4.97842C9.76863 4.90634 9.32841 4.74332 9.0035 4.3789C8.76783 4.11456 8.62321 3.77862 8.56072 3.37472C8.21552 3.45463 7.86735 3.55367 7.51959 3.67523C5.52543 4.37231 3.52231 5.81699 2.16423 8.71184C0.612746 12.0189 1.26717 14.7812 2.44185 16.806C3.6313 18.8564 5.34759 20.1332 5.83552 20.3935C6.05285 20.5094 6.13507 20.7795 6.01916 20.9969C5.90325 21.2142 5.6331 21.2964 5.41577 21.1805C4.78873 20.8461 2.94728 19.4548 1.67031 17.2536C0.378564 15.0269 -0.342115 11.9542 1.35671 8.333C2.8232 5.20707 5.01974 3.60418 7.22526 2.83322C7.6667 2.67891 8.10757 2.55822 8.54197 2.4651C8.58077 2.03577 8.68612 1.67016 8.87508 1.36925C9.12888 0.965083 9.49989 0.730419 9.92377 0.59704C10.3345 0.467787 10.8115 0.428152 11.3119 0.416324C11.6228 0.408974 11.9676 0.412425 12.3278 0.41603Z" fill="#EF5DA8"/>
<path fill-rule="evenodd" clip-rule="evenodd" d="M13.6309 22.1811C13.5458 22.706 13.2255 23.152 12.7982 23.469C12.2969 23.8409 11.6254 24.0576 10.9031 24.0576C10.1807 24.0576 9.50924 23.8409 9.00798 23.469C8.50676 23.0971 8.15283 22.548 8.15283 21.902C8.15283 21.2559 8.50676 20.7068 9.00798 20.3349C9.50924 19.963 10.1807 19.7464 10.9031 19.7464C11.6254 19.7464 12.2969 19.963 12.7982 20.3349C13.1276 20.5793 13.3933 20.9003 13.5368 21.275C17.7613 19.8954 19.3126 16.8995 19.8392 14.7573C20.5894 11.7053 19.6575 9.20278 18.3963 7.39561C17.7645 6.49025 17.0525 5.76407 16.4359 5.24028C15.8085 4.70725 15.3097 4.40875 15.113 4.33122C14.8839 4.24088 14.7714 3.98188 14.8617 3.75274C14.9521 3.5236 15.2111 3.41107 15.4402 3.50142C15.7718 3.63217 16.3587 4.00429 17.0134 4.56051C17.679 5.12597 18.4456 5.90768 19.1278 6.88515C20.4945 8.84364 21.5322 11.6065 20.7054 14.9702C20.1173 17.3625 18.3566 20.7092 13.6373 22.1791C13.6352 22.1798 13.633 22.1805 13.6309 22.1811ZM9.0448 21.902C9.0448 21.6038 9.2067 21.2982 9.53945 21.0513C9.87217 20.8044 10.3528 20.6384 10.9031 20.6384C11.4533 20.6384 11.934 20.8044 12.2667 21.0513C12.5994 21.2982 12.7613 21.6038 12.7613 21.902C12.7613 22.2001 12.5994 22.5058 12.2667 22.7527C11.934 22.9995 11.4533 23.1656 10.9031 23.1656C10.3528 23.1656 9.87217 22.9995 9.53945 22.7527C9.2067 22.5058 9.0448 22.2001 9.0448 21.902Z" fill="#FCB938"/>
</svg>
