<svg width="753" height="119" viewBox="0 0 753 119" fill="none" xmlns="http://www.w3.org/2000/svg">
<path d="M527.723 1.02337C504.521 4.40051 485.407 21.3885 478.763 44.4145C476.412 52.3968 476.412 67.3381 478.763 75.4227C482.749 89.136 491.846 101.723 503.805 109.808C517.297 119.019 537.842 121.577 554.4 116.255C569.016 111.548 580.668 101.928 588.027 88.6243C594.876 76.3438 595.08 74.9111 595.591 35.5111L596 -2.07253e-06L564.417 0.102335C547.143 0.204673 530.584 0.614023 527.723 1.02337Z" fill="#5D5FEF"/>
<path d="M201.51 32.1864C179.613 38.4334 162.935 55.6384 158.433 76.6325C157.716 80.3192 157 84.4156 157 85.6446V88H216.449H276L275.386 81.5482C273.749 61.5782 258.81 42.7347 238.346 34.5418C231.081 31.6744 228.83 31.2647 218.393 31.0599C210.514 30.8551 204.886 31.1623 201.51 32.1864Z" fill="#5D5FEF"/>
<rect y="1" width="118" height="118" fill="#A5A6F6"/>
<circle cx="694" cy="60" r="59" fill="#A5A6F6"/>
<path fill-rule="evenodd" clip-rule="evenodd" d="M434 119H316V1C381.17 1 434 53.8304 434 119Z" fill="#A5A6F6"/>
</svg>
