<svg width="16" height="19" viewBox="0 0 16 19" fill="none" xmlns="http://www.w3.org/2000/svg">
<path d="M7.47865 0.0084362C6.16224 0.137342 5.12708 0.520155 4.17396 1.23109C3.01771 2.09047 2.18568 3.33265 1.83021 4.71937C1.65443 5.41078 1.6388 5.70765 1.6388 8.4889V11.11L0.877084 12.2702C0.00989676 13.5905 -0.0213532 13.6569 0.00599052 14.2233C0.0177093 14.5436 0.0372405 14.6178 0.166147 14.8756C0.404428 15.36 0.857553 15.6998 1.40052 15.8053C1.52552 15.8287 2.37708 15.8444 3.49818 15.8444H5.3888V15.9655C5.3888 16.1803 5.5138 16.6412 5.64271 16.9186C5.9513 17.5553 6.5763 18.0709 7.27552 18.2545C7.59974 18.3405 8.18568 18.3366 8.5138 18.2506C8.91224 18.1412 9.33802 17.8991 9.62318 17.6178C10.049 17.1959 10.2716 16.7506 10.3615 16.153L10.4044 15.8444H12.2833C13.4747 15.8444 14.2482 15.8287 14.3966 15.8014C14.9982 15.692 15.5021 15.2623 15.7091 14.6803C15.8224 14.36 15.8185 13.8717 15.7013 13.5631C15.6505 13.4342 15.2872 12.8405 14.8771 12.2233L14.1388 11.1178V8.4889C14.1388 5.70765 14.1232 5.41078 13.9474 4.71937C13.6583 3.59437 13.1349 2.68812 12.2872 1.84047C11.3068 0.863905 10.2091 0.297499 8.8849 0.082655C8.5138 0.0240612 7.74037 -0.0189075 7.47865 0.0084362ZM8.72865 0.902967C9.29505 0.992811 9.74818 1.14125 10.2911 1.41078C10.9005 1.71156 11.3497 2.04359 11.8068 2.52406C12.6466 3.40687 13.1544 4.52015 13.2794 5.76234C13.3029 5.99672 13.3185 7.25844 13.3185 8.77797V11.3873L14.0568 12.5006C14.4669 13.11 14.8341 13.6842 14.8771 13.7702C15.088 14.1764 14.8966 14.7155 14.4708 14.9108C14.3224 14.9811 14.0607 14.985 7.8888 14.985C1.75599 14.985 1.45521 14.9811 1.30677 14.9108C1.11537 14.8248 0.920053 14.61 0.857553 14.4186C0.830209 14.3366 0.818491 14.1725 0.826303 14.0475C0.841928 13.8287 0.865366 13.7858 1.64271 12.6178L2.43958 11.4186L2.46302 8.54359C2.47865 6.03578 2.49037 5.62562 2.54896 5.31703C2.77552 4.15297 3.25599 3.24281 4.0763 2.4264C4.31458 2.18812 4.64662 1.90297 4.81068 1.78969C5.42787 1.36781 6.26771 1.03187 7.0099 0.906874C7.43568 0.832655 8.29896 0.832655 8.72865 0.902967ZM9.56849 15.8717C9.56458 16.0006 9.43958 16.4537 9.37318 16.5905C9.2638 16.8014 8.93958 17.1452 8.73255 17.2662C8.22083 17.5631 7.49818 17.5514 6.99818 17.235C6.80287 17.11 6.5099 16.7897 6.40443 16.5866C6.33802 16.4537 6.21302 16.0006 6.20912 15.8717C6.20912 15.8561 6.96693 15.8444 7.8888 15.8444C8.81458 15.8444 9.56849 15.8561 9.56849 15.8717Z" fill="#0E0E2C"/>
</svg>
