<?xml version="1.0" standalone="no"?>
<!DOCTYPE svg PUBLIC "-//W3C//DTD SVG 20010904//EN"
 "http://www.w3.org/TR/2001/REC-SVG-20010904/DTD/svg10.dtd">
<svg version="1.0" xmlns="http://www.w3.org/2000/svg"
 width="512.000000pt" height="512.000000pt" viewBox="0 0 512.000000 512.000000"
 preserveAspectRatio="xMidYMid meet">

<g transform="translate(0.000000,512.000000) scale(0.100000,-0.100000)"
fill="#0E0E2C" stroke="none">
<path d="M905 4466 c-107 -34 -186 -102 -232 -201 l-28 -60 -3 -453 c-2 -392
-1 -457 13 -485 41 -87 168 -89 209 -3 14 30 16 86 16 456 0 469 1 474 65 504
28 14 91 16 455 16 463 0 468 1 503 59 35 59 12 137 -49 166 -27 13 -98 15
-471 14 -324 0 -448 -4 -478 -13z"/>
<path d="M3264 4465 c-59 -30 -81 -107 -47 -166 35 -58 40 -59 503 -59 469 0
474 -1 504 -65 14 -28 16 -91 16 -455 0 -356 2 -427 15 -454 41 -87 168 -88
209 -2 15 32 16 82 14 488 l-3 453 -27 57 c-37 79 -98 142 -177 181 l-66 32
-455 2 c-391 3 -459 1 -486 -12z"/>
<path d="M1418 3582 c-54 -33 -58 -56 -58 -342 0 -213 3 -268 15 -294 41 -86
168 -88 209 -2 13 29 16 74 16 296 0 222 -3 267 -16 296 -29 60 -108 82 -166
46z"/>
<path d="M1898 3582 c-54 -33 -58 -56 -58 -342 0 -213 3 -268 15 -294 41 -86
168 -88 209 -2 13 29 16 74 16 296 0 222 -3 267 -16 296 -29 60 -108 82 -166
46z"/>
<path d="M2458 3582 c-54 -33 -58 -56 -58 -342 0 -213 3 -268 15 -294 41 -86
168 -88 209 -2 13 29 16 74 16 296 0 222 -3 267 -16 296 -29 60 -108 82 -166
46z"/>
<path d="M2938 3582 c-54 -33 -58 -56 -58 -342 0 -213 3 -268 15 -294 41 -86
168 -88 209 -2 13 29 16 74 16 296 0 222 -3 267 -16 296 -29 60 -108 82 -166
46z"/>
<path d="M3578 3582 c-54 -33 -58 -56 -58 -342 0 -213 3 -268 15 -294 41 -86
168 -88 209 -2 13 29 16 74 16 296 0 222 -3 267 -16 296 -29 60 -108 82 -166
46z"/>
<path d="M693 2700 c-43 -26 -61 -84 -44 -140 8 -28 22 -47 44 -60 31 -20 66
-20 1867 -20 1801 0 1836 0 1867 20 67 41 67 159 0 200 -31 20 -66 20 -1867
20 -1801 0 -1836 0 -1867 -20z"/>
<path d="M1418 2302 c-55 -33 -58 -52 -58 -382 0 -249 3 -308 15 -334 41 -86
168 -88 209 -2 24 51 24 621 0 672 -29 60 -108 82 -166 46z"/>
<path d="M1898 2302 c-55 -33 -58 -52 -58 -382 0 -249 3 -308 15 -334 41 -86
168 -88 209 -2 24 51 24 621 0 672 -29 60 -108 82 -166 46z"/>
<path d="M2458 2302 c-55 -33 -58 -52 -58 -382 0 -249 3 -308 15 -334 41 -86
168 -88 209 -2 24 51 24 621 0 672 -29 60 -108 82 -166 46z"/>
<path d="M2938 2302 c-55 -33 -58 -52 -58 -382 0 -249 3 -308 15 -334 41 -86
168 -88 209 -2 24 51 24 621 0 672 -29 60 -108 82 -166 46z"/>
<path d="M3578 2302 c-55 -33 -58 -52 -58 -382 0 -249 3 -308 15 -334 41 -86
168 -88 209 -2 24 51 24 621 0 672 -29 60 -108 82 -166 46z"/>
<path d="M698 1902 c-59 -36 -59 -38 -56 -535 l3 -452 32 -66 c39 -79 102
-140 181 -177 l57 -27 453 -3 c392 -2 457 -1 485 13 62 29 85 106 50 166 -35
58 -40 59 -503 59 -364 0 -427 2 -455 16 -64 30 -65 35 -65 504 0 370 -2 426
-16 456 -29 60 -108 82 -166 46z"/>
<path d="M4298 1902 c-57 -35 -58 -41 -58 -502 0 -469 -1 -474 -65 -504 -28
-14 -91 -16 -455 -16 -463 0 -468 -1 -503 -59 -35 -60 -12 -137 50 -166 28
-14 93 -15 485 -13 l453 3 57 27 c79 37 142 98 181 177 l32 66 3 452 c2 407 1
457 -14 489 -29 60 -108 83 -166 46z"/>
</g>
</svg>
