<svg width="20" height="20" viewBox="0 0 20 20" fill="none" xmlns="http://www.w3.org/2000/svg">
<path d="M11.2281 0.0242329C11.4237 0.0750904 11.6663 0.215931 11.8188 0.368507C12.0731 0.618889 12.1357 0.826237 12.2531 1.75343C12.3079 2.21507 12.3744 2.61021 12.3939 2.63759C12.4135 2.66498 12.4917 2.7041 12.57 2.72757C12.6482 2.75496 12.8947 2.85276 13.1177 2.95057L13.5207 3.13053L13.6654 3.01316C14.3422 2.47719 14.8547 2.09771 15.0034 2.02337C15.242 1.9021 15.6254 1.87471 15.9267 1.96469C16.1497 2.02729 16.1888 2.0625 17.0651 2.93492C17.9375 3.81126 17.9728 3.85038 18.0353 4.07337C18.1253 4.37853 18.0979 4.75801 17.9767 4.99666C17.9258 5.09446 17.6793 5.43482 17.429 5.75954C16.8069 6.55372 16.8499 6.46374 16.9869 6.73759C17.0534 6.8667 17.1551 7.10534 17.2138 7.26574C17.2725 7.42614 17.3429 7.57872 17.3664 7.60219C17.3898 7.62566 17.7889 7.69217 18.2505 7.75086C19.1816 7.86822 19.3811 7.93082 19.6315 8.1812C19.7137 8.25944 19.8232 8.41593 19.8858 8.52939L19.9915 8.73282V9.98473V11.2366L19.8897 11.4557C19.8311 11.577 19.7215 11.7413 19.6394 11.8235C19.3811 12.0817 19.1699 12.1482 18.2818 12.2577C17.8476 12.3086 17.4524 12.3673 17.4094 12.3868C17.3624 12.4064 17.2999 12.5042 17.2568 12.6294C17.2177 12.7468 17.1121 12.9932 17.026 13.181C16.9204 13.4197 16.8812 13.5409 16.9086 13.5722C16.9282 13.5996 17.159 13.8969 17.4172 14.2295C17.6754 14.562 17.9258 14.9141 17.9767 15.0119C18.0979 15.2506 18.1253 15.6301 18.0353 15.9352C17.9728 16.1582 17.9375 16.1973 17.0651 17.0737C16.1888 17.9461 16.1497 17.9813 15.9267 18.0439C15.6254 18.1339 15.242 18.1065 15.0034 17.9852C14.8547 17.9109 14.3422 17.5314 13.6654 16.9954L13.5207 16.8781L13.1177 17.058C12.8947 17.1558 12.6482 17.2536 12.57 17.281C12.4917 17.3045 12.4135 17.3436 12.3939 17.371C12.3744 17.3984 12.3079 17.7935 12.2531 18.2552C12.1357 19.1863 12.0731 19.3897 11.8149 19.6479C11.7328 19.7301 11.5685 19.8396 11.4472 19.8983L11.2281 20H9.99575H8.7634L8.54431 19.8983C8.42303 19.8396 8.25872 19.7301 8.17657 19.6479C7.91445 19.3858 7.85185 19.1784 7.7384 18.2512C7.68363 17.7935 7.61712 17.3984 7.59365 17.3749C7.57017 17.3514 7.4176 17.281 7.25719 17.2223C7.09679 17.1636 6.85815 17.0619 6.72905 16.9954C6.45519 16.8585 6.54517 16.8155 5.75099 17.4375C5.42628 17.6879 5.08592 17.9344 4.98811 17.9852C4.74946 18.1065 4.36998 18.1339 4.06483 18.0439C3.84183 17.9813 3.80271 17.9461 2.92637 17.0737C2.05395 16.1973 2.01874 16.1582 1.95614 15.9352C1.86616 15.6301 1.89355 15.2506 2.01483 15.0119C2.08525 14.875 2.453 14.3781 3.08286 13.5761C3.10633 13.5409 3.0633 13.4001 2.94202 13.1262C2.84422 12.9032 2.74641 12.6568 2.71902 12.5785C2.69555 12.5003 2.65643 12.422 2.62904 12.4025C2.60166 12.3829 2.20653 12.3164 1.74488 12.2616C0.813776 12.1443 0.610342 12.0817 0.352135 11.8235C0.269979 11.7413 0.160437 11.577 0.101753 11.4557L3.62396e-05 11.2366V10.0043V8.77194L0.101753 8.55286C0.160437 8.43158 0.269979 8.26727 0.352135 8.18511C0.610342 7.92691 0.817688 7.86431 1.75662 7.73912C2.22217 7.68044 2.61731 7.61393 2.63687 7.59437C2.65643 7.57481 2.71902 7.42614 2.77771 7.26574C2.83639 7.10534 2.93811 6.8667 3.00462 6.73759C3.14154 6.46374 3.18458 6.55372 2.56254 5.75954C2.31215 5.43482 2.06569 5.09446 2.01483 4.99666C1.89355 4.75801 1.86616 4.37853 1.95614 4.07337C2.01874 3.85038 2.05395 3.81126 2.92637 2.93492C3.80271 2.0625 3.84183 2.02729 4.06483 1.96469C4.36998 1.87471 4.74946 1.9021 4.98811 2.02337C5.08592 2.07423 5.42628 2.3207 5.75099 2.57108C6.54517 3.19313 6.45519 3.15009 6.72905 3.01316C6.85815 2.94666 7.09679 2.84494 7.25719 2.78625C7.4176 2.72757 7.57017 2.65715 7.59365 2.63368C7.61712 2.61021 7.68363 2.21507 7.7384 1.75343C7.85576 0.822323 7.91836 0.622801 8.17657 0.360682C8.25872 0.278526 8.42303 0.168983 8.54431 0.1103L8.7634 0.00858307L9.93706 0.000759125C10.5826 -0.00315285 11.1616 0.00858307 11.2281 0.0242329ZM8.90424 0.861446C8.69298 0.967075 8.66559 1.05314 8.52866 2.12118C8.43086 2.8958 8.38391 3.15009 8.32914 3.22442C8.27437 3.29484 8.11788 3.36917 7.78143 3.49045C7.52323 3.58043 7.12027 3.74866 6.88553 3.86211C6.51387 4.04208 6.44737 4.06164 6.34174 4.03034C6.27523 4.01078 5.86053 3.71345 5.41845 3.36917C4.34259 2.53196 4.51473 2.51631 3.5132 3.52175C2.50776 4.52328 2.5195 4.34332 3.37237 5.44265C3.72055 5.89255 4.01788 6.31507 4.03353 6.37376C4.04918 6.46374 4.01006 6.5811 3.85357 6.90582C3.74011 7.13273 3.57971 7.51221 3.49364 7.74694C3.30977 8.26336 3.29021 8.30639 3.18067 8.36507C3.13372 8.39246 2.64469 8.4707 2.09698 8.54112C1.0446 8.67414 0.958529 8.70152 0.8529 8.91278C0.782478 9.0458 0.782478 10.9628 0.8529 11.0958C0.958529 11.3071 1.0446 11.3344 2.10089 11.4675C2.64861 11.5418 3.13372 11.62 3.18067 11.6435C3.29021 11.7022 3.31368 11.7452 3.49756 12.2656C3.57971 12.5042 3.74403 12.8837 3.85357 13.1145C4.03744 13.4862 4.057 13.5448 4.02179 13.6583C4.00223 13.7248 3.7049 14.1395 3.36063 14.5816C2.52341 15.6574 2.50776 15.4853 3.5132 16.4868C4.51473 17.4923 4.33477 17.4805 5.4341 16.6277C5.88401 16.2795 6.30653 15.9822 6.36521 15.9665C6.45519 15.9509 6.57256 15.99 6.89727 16.1465C7.12418 16.2599 7.50758 16.4203 7.74622 16.5064C7.98096 16.5925 8.21569 16.6864 8.26263 16.7177C8.38391 16.7959 8.41521 16.9406 8.54431 17.9813C8.66559 18.9476 8.69298 19.0415 8.90424 19.1471C9.03725 19.2176 10.9542 19.2176 11.0873 19.1471C11.2985 19.0376 11.3259 18.9554 11.4589 17.8913C11.5606 17.105 11.6037 16.8624 11.6623 16.7842C11.7171 16.7137 11.8697 16.6394 12.2061 16.5181C12.4683 16.4281 12.8673 16.2599 13.0981 16.1504C13.4268 15.99 13.5402 15.9509 13.6302 15.9704C13.6928 15.9822 14.084 16.2599 14.4987 16.5807C14.9173 16.9054 15.3085 17.1989 15.3672 17.2302C15.598 17.3475 15.6724 17.2967 16.49 16.479C17.4798 15.4853 17.4681 15.6614 16.6191 14.5659C16.2709 14.116 15.9736 13.6974 15.9619 13.6387C15.9423 13.5566 15.9853 13.4275 16.1379 13.1145C16.2475 12.8837 16.4118 12.5003 16.4939 12.2616C16.58 12.0191 16.6778 11.7843 16.7091 11.7374C16.7874 11.6161 16.9321 11.5848 17.9728 11.4557C18.9391 11.3344 19.033 11.3071 19.1386 11.0958C19.209 10.9628 19.209 9.0458 19.1386 8.91278C19.033 8.70152 18.9391 8.67414 17.9728 8.55286C16.9321 8.42376 16.7874 8.39246 16.7091 8.27118C16.6778 8.22423 16.5839 7.9895 16.4978 7.75477C16.4118 7.51612 16.2514 7.13273 16.1379 6.90191C15.954 6.52633 15.9345 6.46374 15.9697 6.3542C15.9893 6.28378 16.2866 5.86908 16.6309 5.427C17.4681 4.35114 17.4837 4.52328 16.4783 3.52175C15.4768 2.51631 15.6489 2.53196 14.573 3.36917C14.131 3.71345 13.7163 4.01078 13.6498 4.03034C13.5402 4.06555 13.4737 4.04599 13.0786 3.85038C12.836 3.73301 12.4526 3.57261 12.2257 3.49045C11.9988 3.41221 11.7758 3.32223 11.7289 3.29484C11.6076 3.21269 11.5763 3.06793 11.4472 2.02729C11.3259 1.06097 11.2985 0.967075 11.0873 0.861446C11.0207 0.826237 10.7117 0.810587 9.99575 0.810587C9.27981 0.810587 8.97075 0.826237 8.90424 0.861446Z" fill="#0E0E2C"/>
<path d="M10.473 5.85733C11.9166 6.0373 13.145 6.93319 13.771 8.25552C14.5221 9.84779 14.17 11.753 12.8985 12.9854C11.6427 14.1982 9.80007 14.519 8.25474 13.7835C7.32363 13.3453 6.65465 12.6763 6.22039 11.753C5.20713 9.60915 6.21257 7.0623 8.44253 6.1351C9.01762 5.89646 9.86657 5.77909 10.473 5.85733ZM9.3306 6.73367C8.466 6.91754 7.71877 7.42613 7.22192 8.16554C6.84243 8.73281 6.67029 9.31573 6.67029 10.0199C6.67421 11.1506 7.20627 12.1364 8.16085 12.778C8.52468 13.0245 9.0098 13.2201 9.43232 13.2945C9.58489 13.3218 9.89005 13.3336 10.1678 13.3218C10.739 13.2984 11.2006 13.1614 11.6975 12.868C12.0692 12.6489 12.5738 12.1638 12.8046 11.8039C12.9963 11.5105 13.188 11.0371 13.2663 10.6694C13.3367 10.3407 13.3367 9.66783 13.2663 9.3392C12.9885 8.03644 11.9831 7.02317 10.6803 6.73758C10.3673 6.66716 9.64749 6.66716 9.3306 6.73367Z" fill="#0E0E2C"/>
</svg>
