<svg width="25" height="25" viewBox="0 0 25 25" fill="none" xmlns="http://www.w3.org/2000/svg">
<path d="M12.1826 1.92871C12.0996 1.97266 11.2061 2.83203 10.1953 3.84766C8.22268 5.8252 8.19338 5.85938 8.27151 6.26953C8.31057 6.46973 8.49612 6.70899 8.69631 6.81152C8.87209 6.9043 9.19436 6.9043 9.36526 6.81641C9.4385 6.77734 9.99026 6.25 10.5957 5.64453C11.2012 5.03906 11.709 4.54102 11.7285 4.54102C11.753 4.54102 11.7676 6.90918 11.7676 9.79981C11.7676 14.9268 11.7725 15.0684 11.8653 15.2051C11.9971 15.4053 12.2901 15.5762 12.5147 15.5762C12.7686 15.5762 13.0567 15.4199 13.1885 15.2002L13.3057 15.0146L13.3301 9.77539L13.3545 4.54102L14.4531 5.64453C15.0586 6.25 15.6104 6.77734 15.6836 6.81641C15.7569 6.85547 15.9033 6.88477 16.0156 6.88477C16.5186 6.88477 16.8701 6.43555 16.7725 5.91797C16.7432 5.76172 16.499 5.49805 14.878 3.87207C13.8526 2.8418 12.9492 1.97266 12.8613 1.92871C12.6612 1.83594 12.3731 1.83594 12.1826 1.92871Z" fill="#46D5B3"/>
<path d="M6.06938 8.32031C5.2393 8.52539 4.51664 9.25781 4.34574 10.0732C4.31156 10.249 4.29692 12.0166 4.30668 15.8447L4.32133 21.3623L4.43363 21.6406C4.67777 22.2461 5.19535 22.7637 5.8057 23.0078L6.07914 23.1201H12.5H18.9209L19.1993 23.0078C19.8047 22.7637 20.3223 22.2461 20.5664 21.6357L20.6788 21.3623L20.6934 15.8252C20.708 9.72168 20.7178 9.98535 20.4004 9.43359C20.0879 8.88184 19.4727 8.43262 18.8575 8.30566C18.7061 8.27637 18.0616 8.25195 17.3243 8.25195C16.0547 8.25195 16.045 8.25195 15.8448 8.37402C15.5713 8.53027 15.459 8.76465 15.4883 9.11621C15.5127 9.38477 15.6446 9.58984 15.8936 9.73145C15.9571 9.77051 16.4405 9.7998 17.3194 9.81445C18.794 9.84375 18.7842 9.83887 19.0332 10.2051L19.1407 10.3662V15.6885V21.0059L19.0381 21.1914C18.9795 21.2939 18.8526 21.4209 18.75 21.4795L18.5645 21.582H12.4903H6.41117L6.24516 21.4697C6.15727 21.4111 6.03031 21.2842 5.97172 21.1963L5.85942 21.0303V15.6982V10.3662L5.97172 10.2051C6.21586 9.83887 6.2061 9.84375 7.6807 9.81445C8.55961 9.7998 9.04301 9.77051 9.10649 9.73145C9.1602 9.70215 9.2725 9.60938 9.35063 9.52148C9.48246 9.38477 9.49711 9.33594 9.49711 9.04297C9.49711 8.66699 9.4141 8.52051 9.12602 8.35449C8.95512 8.25684 8.87699 8.25195 7.63676 8.25684C6.76274 8.25684 6.24027 8.28125 6.06938 8.32031Z" fill="#46D5B3"/>
</svg>
