<?xml version="1.0" standalone="no"?>
<!DOCTYPE svg PUBLIC "-//W3C//DTD SVG 20010904//EN"
 "http://www.w3.org/TR/2001/REC-SVG-20010904/DTD/svg10.dtd">
<svg version="1.0" xmlns="http://www.w3.org/2000/svg"
 width="512.000000pt" height="512.000000pt" viewBox="0 0 512.000000 512.000000"
 preserveAspectRatio="xMidYMid meet">

<g transform="translate(0.000000,512.000000) scale(0.100000,-0.100000)"
fill="#000000" stroke="none">
<path d="M1045 4185 c-31 -11 -92 -67 -268 -247 -378 -387 -445 -461 -452
-502 -23 -118 84 -219 198 -187 35 10 71 42 222 197 99 101 183 184 188 184 4
0 7 -584 7 -1299 l0 -1298 23 -33 c80 -120 255 -86 287 56 6 22 10 584 10
1309 l1 1270 182 -187 c153 -157 189 -189 225 -199 127 -37 240 91 188 214
-15 36 -646 691 -685 711 -43 23 -84 26 -126 11z"/>
<path d="M2358 4188 c-44 -12 -93 -63 -107 -112 -17 -65 13 -141 72 -176 31
-19 60 -20 1198 -20 l1166 0 33 23 c48 32 72 69 77 119 7 58 -23 118 -74 149
l-38 24 -1145 2 c-736 1 -1158 -2 -1182 -9z"/>
<path d="M2330 3191 c-94 -50 -112 -170 -37 -249 17 -18 47 -37 67 -42 22 -6
369 -10 920 -10 842 0 887 1 926 19 61 28 89 73 89 143 0 63 -19 97 -75 136
l-33 22 -911 0 c-868 0 -913 -1 -946 -19z"/>
<path d="M2345 2216 c-124 -56 -133 -224 -15 -287 33 -18 71 -19 696 -19 l661
0 34 23 c100 67 106 192 13 263 l-37 29 -661 2 c-538 2 -667 0 -691 -11z"/>
<path d="M2323 1220 c-119 -72 -91 -253 45 -290 29 -7 164 -10 430 -8 366 3
389 4 421 23 51 30 74 67 78 127 5 65 -24 122 -77 149 -32 18 -65 19 -450 19
-394 0 -417 -1 -447 -20z"/>
</g>
</svg>
