<svg width="19" height="21" viewBox="0 0 19 21" fill="none" xmlns="http://www.w3.org/2000/svg">
<path d="M7.47865 2.00839C6.16224 2.1373 5.12708 2.52011 4.17396 3.23105C3.01771 4.09042 2.18568 5.33261 1.83021 6.71933C1.65443 7.41073 1.6388 7.70761 1.6388 10.4889V13.11L0.877084 14.2701C0.00989676 15.5904 -0.0213532 15.6568 0.00599052 16.2232C0.0177093 16.5435 0.0372405 16.6178 0.166147 16.8756C0.404428 17.36 0.857553 17.6998 1.40052 17.8053C1.52552 17.8287 2.37708 17.8443 3.49818 17.8443H5.3888V17.9654C5.3888 18.1803 5.5138 18.6412 5.64271 18.9185C5.9513 19.5553 6.5763 20.0709 7.27552 20.2545C7.59974 20.3404 8.18568 20.3365 8.5138 20.2506C8.91224 20.1412 9.33802 19.899 9.62318 19.6178C10.049 19.1959 10.2716 18.7506 10.3615 18.1529L10.4044 17.8443H12.2833C13.4747 17.8443 14.2482 17.8287 14.3966 17.8014C14.9982 17.692 15.5021 17.2623 15.7091 16.6803C15.8224 16.36 15.8185 15.8717 15.7013 15.5631C15.6505 15.4342 15.2872 14.8404 14.8771 14.2232L14.1388 13.1178V10.4889C14.1388 7.70761 14.1232 7.41073 13.9474 6.71933C13.6583 5.59433 13.1349 4.68808 12.2872 3.84042C11.3068 2.86386 10.2091 2.29745 8.8849 2.08261C8.5138 2.02402 7.74037 1.98105 7.47865 2.00839ZM8.72865 2.90292C9.29505 2.99277 9.74818 3.1412 10.2911 3.41073C10.9005 3.71152 11.3497 4.04355 11.8068 4.52401C12.6466 5.40683 13.1544 6.52011 13.2794 7.7623C13.3029 7.99667 13.3185 9.25839 13.3185 10.7779V13.3873L14.0568 14.5006C14.4669 15.11 14.8341 15.6842 14.8771 15.7701C15.088 16.1764 14.8966 16.7154 14.4708 16.9107C14.3224 16.981 14.0607 16.985 7.8888 16.985C1.75599 16.985 1.45521 16.981 1.30677 16.9107C1.11537 16.8248 0.920053 16.61 0.857553 16.4185C0.830209 16.3365 0.818491 16.1725 0.826303 16.0475C0.841928 15.8287 0.865366 15.7857 1.64271 14.6178L2.43958 13.4185L2.46302 10.5435C2.47865 8.03573 2.49037 7.62558 2.54896 7.31698C2.77552 6.15292 3.25599 5.24276 4.0763 4.42636C4.31458 4.18808 4.64662 3.90292 4.81068 3.78964C5.42787 3.36777 6.26771 3.03183 7.0099 2.90683C7.43568 2.83261 8.29896 2.83261 8.72865 2.90292ZM9.56849 17.8717C9.56458 18.0006 9.43958 18.4537 9.37318 18.5904C9.2638 18.8014 8.93958 19.1451 8.73255 19.2662C8.22083 19.5631 7.49818 19.5514 6.99818 19.235C6.80287 19.11 6.5099 18.7896 6.40443 18.5865C6.33802 18.4537 6.21302 18.0006 6.20912 17.8717C6.20912 17.856 6.96693 17.8443 7.8888 17.8443C8.81458 17.8443 9.56849 17.856 9.56849 17.8717Z" fill="#0E0E2C"/>
<circle cx="14" cy="5" r="5" fill="#EF5DA8"/>
</svg>
