<svg width="682" height="624" viewBox="0 0 682 624" fill="none" xmlns="http://www.w3.org/2000/svg">
<path d="M322.996 1.00129C289.796 6.20129 259.796 25.268 241.13 52.868C234.863 62.068 17.5298 438.601 12.0631 449.668C-6.87023 487.535 -3.27023 534.468 21.1298 570.468C37.5298 594.735 62.5964 612.335 91.6631 619.935L102.996 623.001H338.996C592.063 623.001 581.663 623.268 601.263 616.335C619.263 609.935 631.663 601.935 645.53 588.201C656.463 577.268 663.396 567.401 670.463 552.601C678.863 534.868 681.396 523.401 681.396 501.668C681.396 479.935 678.863 468.468 670.463 450.868C665.53 440.601 456.463 77.4013 443.796 57.1346C431.13 36.7346 407.396 16.2013 388.063 9.00129C367.796 1.40129 341.53 -1.79871 322.996 1.00129ZM351.663 55.8013C367.663 58.3346 383.663 67.668 392.73 79.9346C398.73 87.9346 615.263 462.601 621.13 475.001C630.33 494.335 628.196 518.868 615.663 538.201C605.53 554.068 587.663 565.135 568.33 567.668C561.13 568.601 485.13 569.001 333.663 568.735L109.663 568.335L100.73 565.268C63.9298 552.868 44.8631 511.135 60.1964 476.601C62.8631 470.468 276.596 99.5346 286.063 84.3346C296.596 67.5346 318.463 55.4013 339.663 54.468C341.53 54.468 346.863 55.0013 351.663 55.8013Z" fill="#FCB938"/>
<path d="M332.463 192.335C321.263 195.268 312.73 203.268 307.53 215.668C305.13 221.801 305.263 230.335 308.863 289.668C310.463 316.735 312.596 351.668 313.53 367.135C315.53 401.001 316.863 404.601 328.863 410.601C337.13 414.868 342.863 415.268 350.063 412.201C361.53 407.401 367.663 396.468 367.663 381.135C367.53 377.001 369.53 339.935 371.93 298.735C376.73 216.201 376.73 216.868 368.863 205.535C361.396 194.601 345.796 189.001 332.463 192.335Z" fill="#FCB938"/>
<path d="M331.663 439.535C315.53 444.735 305.397 459.268 306.597 475.268C308.063 494.468 321.93 507.535 340.863 507.668C354.463 507.668 365.663 500.735 371.93 488.468C375.397 481.801 375.797 466.735 372.73 459.535C369.797 452.868 362.863 445.268 356.463 442.068C350.597 439.135 337.13 437.668 331.663 439.535Z" fill="#FCB938"/>
</svg>
